# xmcd CD database file
#
# Track frame offsets:
#	151
#	54433
#	70023
#	109503
#	162458
#	207904
#	248206
#	285846
#
# Disc length: 4696 seconds
#
# Revision: 0
# Processed by: cddbd v1.5.2PL0 Copyright (c) Steve Scherf et al.
# Submitted via: CDex 1.70beta2
#
DISCID=67125608
DTITLE=Bill Evans and Tony Scott  -  The Complete Recordings [Edizione: Francia] Disk 2 
DYEAR=1900
DGENRE=Jazz
TTITLE0=Walkin'
TTITLE1=I can't get started
TTITLE2=Free and easy blues
TTITLE3=My melancholy baby
TTITLE4=Stella by starlight
TTITLE5=I'll remember April
TTITLE6=A Night in Tunisia
TTITLE7=Garrison's raiders
EXTD=
EXTT0=
EXTT1=
EXTT2=
EXTT3=
EXTT4=
EXTT5=
EXTT6=
EXTT7=
PLAYORDER=
